<?xml version="1.0" encoding="UTF-8" standalone="no"?>
<!-- Created with Inkscape (http://www.inkscape.org/) -->

<svg
   version="1.1"
   id="svg1"
   width="1545"
   height="2000"
   viewBox="0 0 1545 2000"
   sodipodi:docname="campus-map1.svg"
   inkscape:version="1.3.2 (091e20e, 2023-11-25, custom)"
   xml:space="preserve"
   xmlns:inkscape="http://www.inkscape.org/namespaces/inkscape"
   xmlns:sodipodi="http://sodipodi.sourceforge.net/DTD/sodipodi-0.dtd"
   xmlns:xlink="http://www.w3.org/1999/xlink"
   xmlns="http://www.w3.org/2000/svg"
   xmlns:svg="http://www.w3.org/2000/svg"><defs
     id="defs1" /><sodipodi:namedview
     id="namedview1"
     pagecolor="#ffffff"
     bordercolor="#000000"
     borderopacity="0.25"
     inkscape:showpageshadow="2"
     inkscape:pageopacity="0.0"
     inkscape:pagecheckerboard="0"
     inkscape:deskcolor="#d1d1d1"
     showgrid="false"
     inkscape:zoom="1.147"
     inkscape:cx="861.3775"
     inkscape:cy="785.96338"
     inkscape:window-width="2560"
     inkscape:window-height="1361"
     inkscape:window-x="-9"
     inkscape:window-y="-9"
     inkscape:window-maximized="1"
     inkscape:current-layer="g1" /><g
     inkscape:groupmode="layer"
     inkscape:label="Image"
     id="g1"><image
       width="1545"
       height="2000"
       preserveAspectRatio="none"
       xlink:href="../../../CampusPhoto/campus-map.jpg"
       id="image1"
       x="1.3375657"
       y="-0.67995334" /><path
       style="fill:#fff400;fill-opacity:0.4;stroke-width:1.07055"
       d="m 782.12816,486.8998 c 0.87184,84.93089 1.74368,87.92844 1.74368,87.92844 l 43.59198,-0.99918 -1.74368,-87.92845 z"
       id="path1-9"
       onmouseover="this.style.opacity=1"
       onmouseout="this.style.opacity=0"
       sodipodi:nodetypes="ccccc" /><path
       style="fill:#fff400;fill-opacity:0.4"
       d="m 603.31299,353.09503 c 0.87184,74.10637 1.74368,76.72188 1.74368,76.72188 l 43.59198,-0.87184 -1.74368,-76.72188 z"
       id="path1"
       onmouseover="this.style.opacity=1"
       onmouseout="this.style.opacity=0"
       sodipodi:nodetypes="ccccc" /><path
       style="fill:#fff400;fill-opacity:0.4"
       d="m 997.38448,488.23017 v 88.05579 l 231.03752,-1.74368 -1.7437,-88.05579 z"
       id="path2" /><path
       style="fill:#fff400;fill-opacity:0.4"
       d="m 1001.7437,633.82738 v 84.56844 l 225.8064,-1.74368 1.7437,-83.6966 z"
       id="path3" /><path
       style="fill:#fff400;fill-opacity:0.4"
       d="m 1122.9294,809.06713 v 42.72014 l 58.4132,-0.87184 -0.8718,-40.97646 z"
       id="path4" /><path
       style="fill:#fff400;fill-opacity:0.4"
       d="m 516.12903,734.96077 -18.30863,73.23452 98.51787,27.89887 19.18047,-73.23453 z"
       id="path5" /><path
       style="fill:#fff400;fill-opacity:0.4"
       d="m 768.96251,816.91369 -14.82127,56.66957 -4.3592,0.87184 -5.23104,13.94943 12.20576,2.61552 4.35919,-4.3592 93.28684,36.61727 26.15519,-66.25981 z"
       id="path6" /><path
       style="fill:#fff400;fill-opacity:0.4"
       d="m 901.48213,868.35222 -25.28335,66.25981 69.74717,27.02703 29.64254,-66.25981 z"
       id="path7" /><path
       style="fill:#fff400;fill-opacity:0.4"
       d="m 979.07585,898.86661 -28.77071,66.25981 34.00175,13.07759 5.23104,-11.33391 19.18047,10.46207 85.4403,-3.48736 1.7437,-8.71839 h 11.3339 l 1.7436,-6.97472 6.9748,-7.84656 z"
       id="path8" /><path
       style="fill:#fff400;fill-opacity:0.4"
       d="m 839.58152,986.05057 -115.08283,1.74368 1.74368,-28.77071 4.3592,3.48736 6.10288,-20.92415 z"
       id="path9" /><path
       style="fill:#fff400;fill-opacity:0.4"
       d="m 722.75501,1032.2581 1.74368,93.2868 54.9259,-0.8718 -0.87184,-94.1587 z"
       id="path10" /><path
       style="fill:#fff400;fill-opacity:0.4"
       d="m 782.0401,1029.6425 v 96.7742 l 43.59198,-0.8718 -0.87184,-95.9024 z"
       id="path11" /><path
       style="fill:#fff400;fill-opacity:0.4"
       d="m 826.50392,1028.7707 v 95.0305 l 53.18222,0.8719 0.87184,-96.7742 z"
       id="path12" /><path
       style="fill:#fff400;fill-opacity:0.4"
       d="m 944.20227,1028.7707 -60.15693,1.7437 v 95.0305 l 61.02877,-0.8718 z"
       id="path13" /><path
       style="fill:#fff400;fill-opacity:0.4"
       d="m 947.68963,1030.5144 133.39147,52.3104 0.8718,42.7201 -134.26327,-0.8718 z"
       id="path14" /><path
       style="fill:#fff400;fill-opacity:0.4"
       d="m 452.48474,845.68439 -9.59023,39.23279 45.33566,15.69311 -11.33392,36.61726 26.15519,6.10288 20.92415,3.48736 4.3592,-15.69312 -6.10288,-2.61552 6.10288,-17.43679 39.23278,11.33392 44.46382,11.33391 -8.7184,35.74542 39.23278,10.46208 19.18047,-70.61901 -34.00174,-13.07759 c 0,0 -49.69486,-13.07759 -46.2075,-13.07759 3.48736,0 6.10288,-11.33392 6.10288,-11.33392 l -13.94944,-3.48736 -5.23103,13.94944 z"
       id="path15" /><path
       style="fill:#fff400;fill-opacity:0.4"
       d="m 438.53531,840.45336 -158.6748,-44.46382 -21.79599,77.59372 161.29032,43.59198 z"
       id="path16" /><path
       style="fill:#fff400;fill-opacity:0.4"
       d="m 151.70009,983.43505 -2.61552,-61.02877 197.90758,54.92589 -2.61552,11.33392 c 0,0 -192.67654,-9.59024 -192.67654,-5.23104 z"
       id="path17" /><path
       style="fill:#fff400;fill-opacity:0.4"
       d="m 328.53393,1035.7454 1.74368,88.9277 h 56.66958 v -89.7995 z"
       id="path18" /><path
       style="fill:#fff400;fill-opacity:0.4"
       d="m 389.71229,1036.6173 0.87184,88.9276 101.13339,-1.7437 v -88.9276 z"
       id="path19" /><path
       style="fill:#fff400;fill-opacity:0.4"
       d="m 496.07672,1034.8736 v 90.6713 l 55.79774,0.8718 v -91.5431 z"
       id="path20" /><path
       style="fill:#fff400;fill-opacity:0.4"
       d="m 557.97733,1034.0017 c -1.74368,3.4874 -1.74368,93.2869 -1.74368,93.2869 l 40.10462,-2.6155 -4.35919,-13.0776 8.71839,-2.6156 2.61552,-16.5649 -10.46207,-4.3592 9.59023,-42.7201 -12.20575,-10.4621 z"
       id="path21" /><path
       style="fill:#ffaa00;fill-opacity:0.4;stroke-width:0.962064"
       d="m 138.96419,461.36518 387.14741,-1.19977 717.5913,-2.22381 v 21.6827 L 138.96419,476.20071 Z"
       id="path24" /><text
       xml:space="preserve"
       id="text26"
       style="white-space:pre;shape-inside:url(#rect27);fill:#000000;fill-opacity:1;stroke:none;stroke-width:0.442724;stroke-dasharray:none;stroke-opacity:1"
       transform="matrix(1.2130907,0,0,1.3798215,325.75735,473.0781)"><tspan
         x="0"
         y="0"
         id="tspan1">Free Street Parking</tspan></text><path
       style="fill:#ffaa00;fill-opacity:0.4;stroke:#000000;stroke-width:0;stroke-dasharray:none;stroke-opacity:1"
       d="m 1244.0641,294.67919 v 45.6198 l -1102.27285,-2.46594 -1.23297,-45.61979 z"
       id="path27" /><text
       xml:space="preserve"
       id="text26-0"
       style="white-space:pre;shape-inside:url(#rect27-1);fill:#000000;fill-opacity:1;stroke:none;stroke-width:0.442724;stroke-dasharray:none;stroke-opacity:1"
       transform="matrix(1.8944633,0,0,2.2211818,280.79091,326.67505)"><tspan
         x="0"
         y="0"
         id="tspan2">Free Parking (3-hr Limit)</tspan></text><path
       style="fill:#ffaa00;fill-opacity:0.4;stroke:#000000;stroke-width:0;stroke-dasharray:none;stroke-opacity:1"
       d="m 267.70608,583.57056 129.50059,39.10876 845.20723,-1.56424 -1.7266,-37.54452 z"
       id="path28" /><text
       xml:space="preserve"
       id="text26-0-1"
       style="font-size:14.3753px;white-space:pre;shape-inside:url(#rect27-1-2);fill:#000000;fill-opacity:1;stroke:none;stroke-width:0.442724;stroke-dasharray:none;stroke-opacity:1"
       transform="matrix(1.5961131,0,0,1.3798215,412.81905,606.18284)"><tspan
         x="0"
         y="0"
         id="tspan3">Free Parking (90-min Limit)</tspan></text><path
       style="fill:#fff300;fill-opacity:0.4;stroke:#000000;stroke-width:0;stroke-dasharray:none;stroke-opacity:1"
       d="m 707.71156,729.46685 127.28858,24.41151 287.70696,0.87184 120.3139,-0.87184 -0.8719,-26.15519 z"
       id="path29" /><text
       xml:space="preserve"
       id="text26-7"
       style="white-space:pre;shape-inside:url(#rect27-4);fill:#000000;fill-opacity:1;stroke:none;stroke-width:0.442724;stroke-dasharray:none;stroke-opacity:1"
       transform="matrix(1.2130907,0,0,1.4222999,1026.5591,746.02496)"><tspan
         x="0"
         y="0"
         id="tspan4">Paid Parking (90-min Limit)</tspan></text><path
       style="fill:#ffee00;fill-opacity:0.4;stroke:none"
       d="m 734.6253,1151.7239 h 510.0261 l -1.7436,-20.9242 -1027.89889,1.7437 -0.87184,21.796 z"
       id="path22" /><text
       xml:space="preserve"
       id="text26-7-1"
       style="white-space:pre;shape-inside:url(#rect27-4-1);fill:#000000;fill-opacity:1;stroke:none;stroke-width:0.442724;stroke-dasharray:none;stroke-opacity:1"
       transform="matrix(1.2130907,0,0,1.4222999,289.67476,1150.0268)"><tspan
         x="0"
         y="0"
         id="tspan5">Paid Parking (90-min Limit)</tspan></text><path
       style="fill:#ffee00;fill-opacity:0.4;stroke:none;stroke-width:1.01955"
       d="m 1243.2433,1113.4273 -0.8719,-530.16662 45.4298,0.32449 -1.2329,550.47123 -43.7704,-0.6408 z"
       id="path23" /><text
       xml:space="preserve"
       id="text26-7-9"
       style="white-space:pre;shape-inside:url(#rect27-4-9);fill:#000000;fill-opacity:1;stroke:none;stroke-width:0.442724;stroke-dasharray:none;stroke-opacity:1"
       transform="matrix(0,-1.2130907,1.4222999,0,1269.3072,1117.4763)"><tspan
         x="0"
         y="0"
         id="tspan6">Paid Parking (90-min Limit)</tspan></text><path
       style="fill:#feab00;fill-opacity:0.4;stroke:none;stroke-width:1.00231"
       d="m 1243.4144,581.9948 -1.2329,-531.391809 h 45.6197 v 32.205565 h -28.3582 l -1.233,33.444234 h 20.9605 l 6.1648,21.05749 1.233,448.40054"
       id="path25" /><text
       xml:space="preserve"
       id="text26-0-1-9"
       style="white-space:pre;shape-inside:url(#rect27-1-2-1);fill:#000000;fill-opacity:1;stroke:none;stroke-width:0.442724;stroke-dasharray:none;stroke-opacity:1"
       transform="matrix(0,-1.8944633,2.2211818,0,1271.667,523.71984)"><tspan
         x="0"
         y="0"
         id="tspan7">Free Parking (90-min Limit)</tspan></text><path
       style="fill:#ffe600;fill-opacity:0.4;stroke:none"
       d="m 140.6547,556.33192 122.05754,27.02702 126.41674,31.38623 -0.87184,18.30863 272.88579,77.59372 -2.61552,-86.31212 h 47.07934 l 1.74368,104.62075 122.05754,26.15519 -0.87184,15.69311 225.80637,87.18396 186.5736,-1.74368 0.8719,42.72013 -222.3191,-0.8718 -285.09144,-114.21101 -10.46208,-16.56496 -69.74716,-20.92415 -20.05231,8.7184 -489.97385,-139.49433 z"
       id="path26" /><text
       xml:space="preserve"
       id="text26-7-0"
       style="white-space:pre;shape-inside:url(#rect27-4-4);fill:#000000;fill-opacity:1;stroke:none;stroke-width:0.442724;stroke-dasharray:none;stroke-opacity:1"
       transform="matrix(1.1543902,0.37278994,-0.43708116,1.3534759,598.73701,720.16828)"><tspan
         x="0"
         y="0"
         id="tspan8">Paid Parking (90-min Limit)</tspan></text></g></svg>
